#!OML:ASF H:\Not Pregnant\Project 1\Capture day 1\Session 1\non-pregnant.ASF
:FULLY-SPECIFIED
:DEGREES
741
root -1.85817 16.3825 -12.7055 14.7791 -12.8574 352.536
lowerback 0.929038 1.19529 9.71593
upperback -8.94175 2.1383 -0.647207
thorax -9.77155 0.210245 -6.32883
lowerneck 10.7627 -10.9857 -30.6996
upperneck -1.04197 -20.1304 38.9613
head 5.97829 -11.3355 18.3545
rclavicle -9.93923e-015 -7.15625e-015
rhumerus -29.3573 8.9562 -81.8719
rradius 62.9327
rwrist -12.1874
rhand -15.5747 -27.7833
rfingers 7.12502
rthumb 10.6104 -57.4954
lclavicle -9.93923e-015 -7.15625e-015
lhumerus -33.8837 -17.1458 76.1326
lradius 71.2256
lwrist 56.0277
lhand -22.0428 12.1266
lfingers 7.12502
lthumb 4.36747 42.0616
rfemur -18.1967 4.47656 27.2064
rtibia 30.8426
rfoot -21.5922 5.32194
rtoes -24.1854
lfemur -45.6978 9.12765 -18.6001
ltibia 49.5148
lfoot -15.2647 3.47298
ltoes -30.1898
742
root -1.87984 16.3894 -12.5993 14.8237 -12.5677 352.5
lowerback 0.893344 1.24633 9.80456
upperback -8.92541 2.20793 -0.659091
thorax -9.71806 0.240745 -6.3956
lowerneck 10.7486 -11.0032 -30.6948
upperneck -1.01748 -20.1587 38.9918
head 6.00517 -11.3486 18.3632
rclavicle 6.5102e-015 2.22639e-014
rhumerus -29.0059 9.14643 -81.9754
rradius 62.831
rwrist -12.2508
rhand -15.3378 -27.7373
rfingers 7.12502
rthumb 10.8389 -57.4376
lclavicle 6.5102e-015 2.22639e-014
lhumerus -33.7647 -17.0669 75.914
lradius 71.2415
lwrist 56.1393
lhand -22.0916 12.2177
lfingers 7.12502
lthumb 4.32033 42.1536
rfemur -17.4929 4.33192 27.3003
rtibia 30.2377
rfoot -21.4722 5.26009
rtoes -24.5874
lfemur -45.9883 8.93413 -18.5436
ltibia 47.8065
lfoot -14.8999 3.48567
ltoes -29.6673
743
root -1.90049 16.3967 -12.4918 14.8781 -12.2986 352.467
lowerback 0.851981 1.30001 9.88125
upperback -8.91935 2.28045 -0.666036
thorax -9.67229 0.273109 -6.45033
lowerneck 10.741 -11.017 -30.7008
upperneck -0.993129 -20.1846 39.0192
head 6.03058 -11.3611 18.3739
rclavicle 2.57923e-014 2.38542e-014
rhumerus -28.6842 9.34057 -82.0777
rradius 62.7463
rwrist -12.3364
rhand -15.239 -27.795
rfingers 7.12502
rthumb 10.9342 -57.4903
lclavicle 2.57923e-014 2.38542e-014
lhumerus -33.6743 -16.9799 75.7097
lradius 71.2624
lwrist 56.2346
lhand -22.125 12.3094
lfingers 7.12502
lthumb 4.28802 42.246
rfemur -16.7832 4.19995 27.3829
rtibia 29.6033
rfoot -21.3316 5.22141
rtoes -24.9935
lfemur -46.2396 8.72102 -18.4652
ltibia 46.0487
lfoot -14.4713 3.43801
ltoes -29.111
744
root -1.9201 16.4042 -12.3829 14.947 -12.0513 352.433
lowerback 0.802529 1.35981 9.94756
upperback -8.92738 2.3605 -0.669654
thorax -9.63625 0.309113 -6.49599
lowerneck 10.7529 -11.0261 -30.711
upperneck -0.971477 -20.2077 39.0412
head 6.04983 -11.3738 18.385
rclavicle 9.93923e-016 2.38542e-014
rhumerus -28.3986 9.53504 -82.1769
rradius 62.6797
rwrist -12.4642
rhand -15.205 -27.866
rfingers 7.12502
rthumb 10.967 -57.5596
lclavicle 9.93923e-016 2.38542e-014
lhumerus -33.6142 -16.8943 75.5225
lradius 71.2875
lwrist 56.3141
lhand -22.1554 12.4054
lfingers 7.12502
lthumb 4.2587 42.3426
rfemur -16.0723 4.08406 27.4555
rtibia 28.939
rfoot -21.1709 5.20146
rtoes -25.4008
lfemur -46.4617 8.49136 -18.3655
ltibia 44.253
lfoot -13.9844 3.35181
ltoes -28.5099
745
root -1.93862 16.4121 -12.2727 15.0339 -11.8249 352.399
lowerback 0.742661 1.42619 10.0055
upperback -8.94722 2.4484 -0.670499
thorax -9.60589 0.349037 -6.53417
lowerneck 10.7662 -11.0386 -30.7175
upperneck -0.952386 -20.2337 39.0531
head 6.06682 -11.3874 18.3887
rclavicle 1.81391e-014 3.57812e-014
rhumerus -28.1438 9.72251 -82.271
rradius 62.6345
rwrist -12.6091
rhand -15.1892 -27.9402
rfingers 7.12502
rthumb 10.9823 -57.633
lclavicle 1.81391e-014 3.57812e-014
lhumerus -33.5762 -16.811 75.3496
lradius 71.3188
lwrist 56.3804
lhand -22.1766 12.5094
lfingers 7.12502
lthumb 4.23824 42.4469
rfemur -15.3635 3.97747 27.5179
rtibia 28.2453
rfoot -20.9938 5.21006
rtoes -25.7959
lfemur -46.6625 8.24442 -18.2445
ltibia 42.4346
lfoot -13.4436 3.25572
ltoes -27.9005
